<svg width="299" height="298" viewBox="0 0 299 298" fill="none" xmlns="http://www.w3.org/2000/svg">
<ellipse cx="227.5" cy="176.5" rx="24.5" ry="18.5" fill="#FFE0E5"/>
<ellipse cx="167.5" cy="111" rx="96.5" ry="84" fill="#FFE0E5"/>
<ellipse cx="189.5" cy="50" rx="39.5" ry="23" fill="#FFE0E5"/>
<ellipse cx="236.5" cy="128" rx="39.5" ry="36" fill="#FFE0E5"/>
<ellipse cx="243.5" cy="104.5" rx="24.5" ry="23.5" fill="#FFE0E5"/>
<ellipse cx="243.5" cy="170.5" rx="24.5" ry="18.5" fill="#FFE0E5"/>
<ellipse cx="251.5" cy="152.5" rx="24.5" ry="22.5" fill="#FFE0E5"/>
<ellipse cx="155.715" cy="117.845" rx="100.399" ry="61.7946" transform="rotate(60 155.715 117.845)" fill="#E9CCD3"/>
<ellipse cx="160.967" cy="115.902" rx="49.917" ry="100.393" transform="rotate(-30 160.967 115.902)" fill="#FFE0E5"/>
<ellipse cx="178.75" cy="50.4713" rx="1.45049" ry="5.26676" transform="rotate(-45 178.75 50.4713)" fill="#E9CCD3"/>
<ellipse cx="116.5" cy="128.5" rx="85.5" ry="103.5" fill="#FFE0E5"/>
<ellipse cx="72" cy="142" rx="51" ry="79" fill="#FFE0E5"/>
<ellipse cx="110" cy="211.5" rx="51" ry="20.5" fill="#FFE0E5"/>
<ellipse cx="161" cy="195.5" rx="51" ry="20.5" fill="#FFE0E5"/>
<ellipse cx="189.5" cy="108" rx="24.5" ry="27" fill="#FFE0E5"/>
<ellipse cx="209" cy="127.5" rx="12" ry="13.5" fill="#FFE0E5"/>
<path d="M225 142C225 151.389 219.627 159 213 159C206.373 159 201 151.389 201 142C201 132.611 206.373 125 213 125C219.627 125 225 132.611 225 142Z" fill="#FFE0E5"/>
<path d="M209.5 132.5C214.333 134.833 225.2 137.3 230 128.5" stroke="black"/>
<ellipse cx="157" cy="83.5" rx="40" ry="32.5" fill="#FFE0E5"/>
<circle cx="135.5" cy="81.5" r="32.5" fill="#FFEAEB"/>
<ellipse cx="207.637" cy="44.7093" rx="19.5" ry="11.5" transform="rotate(30 207.637 44.7093)" fill="#FFEAEB"/>
<ellipse cx="207.103" cy="49.6417" rx="23.3021" ry="13.8456" transform="rotate(30 207.103 49.6417)" fill="#FFE0E5"/>
<ellipse cx="198.5" cy="67.9849" rx="1.63173" ry="5.81056" transform="rotate(-50 198.5 67.9849)" fill="#FFE0E5"/>
<ellipse cx="203.166" cy="75.5242" rx="1.63173" ry="4.53669" transform="rotate(-40 203.166 75.5242)" fill="#FFE0E5"/>
<ellipse rx="12.1446" ry="7.32098" transform="matrix(0.999816 0.0192047 0.0187881 0.999824 257.932 130.67)" fill="#FFEAEB"/>
<ellipse rx="14.5125" ry="8.81422" transform="matrix(0.999816 0.0192047 0.0187881 0.999824 258.644 134.532)" fill="#FFE0E5"/>
<circle cx="114.5" cy="78.5" r="32.5" fill="#FFEAEB"/>
<ellipse cx="140.5" cy="88.5" rx="36.5" ry="32.5" fill="#FFE0E5"/>
<ellipse cx="113.5" cy="81.5" rx="36.5" ry="32.5" fill="#FFE0E5"/>
<ellipse cx="141.946" cy="33.2709" rx="4.84359" ry="12.1525" transform="rotate(-60 141.946 33.2709)" fill="#FFE0E5"/>
<ellipse cx="78" cy="95.5" rx="23" ry="22.5" fill="#FFEAEB"/>
<ellipse cx="60.3338" cy="110.516" rx="23" ry="27.5" transform="rotate(15 60.3338 110.516)" fill="#FFEAEB"/>
<ellipse cx="58.2992" cy="114.858" rx="25.9047" ry="29.3582" transform="rotate(30 58.2992 114.858)" fill="#FFE0E5"/>
<ellipse cx="81.871" cy="97.4702" rx="23" ry="21.9049" transform="rotate(30 81.871 97.4702)" fill="#FFE0E5"/>
<ellipse cx="51.9714" cy="161.803" rx="23" ry="22.5" transform="rotate(-120 51.9714 161.803)" fill="#E9CCD3"/>
<ellipse cx="81.2315" cy="171.646" rx="24.8338" ry="34.0456" transform="rotate(-105 81.2315 171.646)" fill="#E9CCD3"/>
<ellipse cx="85.5" cy="170.644" rx="27.5" ry="33.5" transform="rotate(-90 85.5 170.644)" fill="#FFE0E5"/>
<ellipse cx="51.4186" cy="156.847" rx="23" ry="27.5" transform="rotate(-90 51.4186 156.847)" fill="#FFE0E5"/>
<ellipse cx="132.053" cy="164.955" rx="23" ry="22.5" transform="rotate(-120 132.053 164.955)" fill="#E9CCD3"/>
<ellipse cx="153.89" cy="172.747" rx="23" ry="27.5" transform="rotate(-105 153.89 172.747)" fill="#E9CCD3"/>
<ellipse cx="158.668" cy="172.338" rx="25.9047" ry="29.3582" transform="rotate(-90 158.668 172.338)" fill="#FFE0E5"/>
<ellipse cx="131.823" cy="160.618" rx="23" ry="21.9049" transform="rotate(-90 131.823 160.618)" fill="#FFE0E5"/>
<ellipse cx="109.992" cy="120.289" rx="23" ry="22.5" transform="rotate(-30 109.992 120.289)" fill="#FFEAEB"/>
<ellipse cx="99.0115" cy="130.223" rx="23" ry="15.177" transform="rotate(-15 99.0115 130.223)" fill="#FFEAEB"/>
<ellipse cx="101.905" cy="134.406" rx="25.9047" ry="15.4055" fill="#FFE0E5"/>
<ellipse cx="114.33" cy="120.06" rx="23" ry="21.9049" fill="#FFE0E5"/>
<ellipse cx="236.484" cy="81.3451" rx="20.1758" ry="21.3055" transform="rotate(35 236.484 81.3451)" fill="#FFEAEB"/>
<ellipse rx="20.2872" ry="13.2539" transform="matrix(0.627529 0.778594 -0.754028 0.656842 225.182 75.7865)" fill="#FFEAEB"/>
<ellipse rx="21.0049" ry="13.1381" transform="matrix(0.39182 0.920042 -0.892115 0.451809 222.141 78.0696)" fill="#FFE0E5"/>
<ellipse rx="20.5883" ry="20.371" transform="matrix(0.39182 0.920042 -0.892115 0.451809 238.196 84.821)" fill="#FFE0E5"/>
<ellipse cx="251.699" cy="171.826" rx="16.5389" ry="15.0784" transform="rotate(160 251.699 171.826)" fill="#E9CCD3"/>
<ellipse rx="16.4659" ry="18.5224" transform="matrix(-0.99456 0.104165 -0.0690483 -0.997613 259.205 157.53)" fill="#E9CCD3"/>
<ellipse rx="18.319" ry="20.0432" transform="matrix(-0.989568 -0.144064 0.204128 -0.978944 257.219 155.26)" fill="#FFE0E5"/>
<ellipse rx="16.2649" ry="14.9548" transform="matrix(-0.989568 -0.144064 0.204128 -0.978944 249.148 173.983)" fill="#FFE0E5"/>
<ellipse rx="15.9346" ry="9.05772" transform="matrix(0.99951 -0.0313154 -0.0324897 0.999472 169.666 144.566)" fill="#FFEAEB"/>
<ellipse rx="19.0416" ry="10.9052" transform="matrix(0.99951 -0.0313154 -0.0324897 0.999472 170.351 149.301)" fill="#FFE0E5"/>
<ellipse cx="180" cy="126.5" rx="8" ry="8.5" fill="black"/>
<ellipse cx="176" cy="123" rx="2" ry="3" fill="white"/>
<circle cx="185" cy="131" r="1" fill="white"/>
<ellipse cx="244.5" cy="116.5" rx="5.5" ry="8.5" fill="black"/>
<ellipse cx="241.5" cy="113.5" rx="1.5" ry="2.5" fill="white"/>
<path d="M262.5 43L263.246 45.9514L266.018 44.6943L264.176 47.1175L266.887 48.5013L263.844 48.5717L264.452 51.5544L262.5 49.2188L260.548 51.5544L261.156 48.5717L258.113 48.5013L260.824 47.1175L258.982 44.6943L261.754 45.9514L262.5 43Z" fill="#5594A2"/>
<path d="M263.5 65L264.246 67.9514L267.018 66.6943L265.176 69.1175L267.887 70.5013L264.844 70.5717L265.452 73.5544L263.5 71.2188L261.548 73.5544L262.156 70.5717L259.113 70.5013L261.824 69.1175L259.982 66.6943L262.754 67.9514L263.5 65Z" fill="#CEAF0E"/>
<path d="M89.5 6L90.2458 8.95137L93.0182 7.6943L91.1758 10.1175L93.8872 11.5013L90.8438 11.5717L91.4525 14.5544L89.5 12.2188L87.5475 14.5544L88.1562 11.5717L85.1128 11.5013L87.8242 10.1175L85.9818 7.6943L88.7542 8.95137L89.5 6Z" fill="#CEAF0E"/>
<path d="M10.5 74L11.2458 76.9514L14.0182 75.6943L12.1758 78.1175L14.8872 79.5013L11.8438 79.5717L12.4525 82.5544L10.5 80.2188L8.54752 82.5544L9.15615 79.5717L6.11282 79.5013L8.82425 78.1175L6.98176 75.6943L9.75422 76.9514L10.5 74Z" fill="#CEAF0E"/>
<path d="M214.5 18L215.246 20.9514L218.018 19.6943L216.176 22.1175L218.887 23.5013L215.844 23.5717L216.452 26.5544L214.5 24.2188L212.548 26.5544L213.156 23.5717L210.113 23.5013L212.824 22.1175L210.982 19.6943L213.754 20.9514L214.5 18Z" fill="#CEAF0E"/>
<path d="M64.5 24L65.2458 26.9514L68.0182 25.6943L66.1758 28.1175L68.8872 29.5013L65.8438 29.5717L66.4525 32.5544L64.5 30.2188L62.5475 32.5544L63.1562 29.5717L60.1128 29.5013L62.8242 28.1175L60.9818 25.6943L63.7542 26.9514L64.5 24Z" fill="#5594A2"/>
<path d="M233.5 10L234.246 12.9514L237.018 11.6943L235.176 14.1175L237.887 15.5013L234.844 15.5717L235.452 18.5544L233.5 16.2188L231.548 18.5544L232.156 15.5717L229.113 15.5013L231.824 14.1175L229.982 11.6943L232.754 12.9514L233.5 10Z" fill="#5594A2"/>
<path d="M12.5 97L13.2458 99.9514L16.0182 98.6943L14.1758 101.118L16.8872 102.501L13.8438 102.572L14.4525 105.554L12.5 103.219L10.5475 105.554L11.1562 102.572L8.11282 102.501L10.8242 101.118L8.98176 98.6943L11.7542 99.9514L12.5 97Z" fill="#5594A2"/>
<ellipse cx="248.5" cy="120" rx="0.5" ry="1" fill="white"/>
</svg>
